<svg xmlns="http://www.w3.org/2000/svg" viewBox="0 0 300.75 123.63">
  <defs>
    <style>
      .cls-1, .cls-2, .cls-3, .cls-4, .cls-5, .cls-6, .cls-7 {
        stroke-width: 0px;
      }

      .cls-2 {
        fill: #fff;
      }

      .cls-3 {
        fill: #4e77e0;
      }

      .cls-4 {
        fill: #888;
      }

      .cls-5 {
        fill: #52c3ce;
      }

      .cls-6 {
        fill: #3db79f;
      }

      .cls-7 {
        fill: #38b1e0;
      }
    </style>
  </defs>
  <g id="logo">
    <path class="cls-2" d="m125.59,96.52c.1,0,.2-.05.28-.12.06-.07.09-.14.09-.24l-.31-25.39s0-.02,0-.03V29.8H38.71v40.94c0,3.09,2.52,5.61,5.61,5.61l58.63,1.4c.57,0,1.13.17,1.6.5l20.85,18.2c.09.06.15.07.19.07Z"/>
    <rect class="cls-3" x="57.18" y="0" width="7.74" height="18.72" rx="3.87" ry="3.87"/>
    <path class="cls-3" d="m128.45,70.73V19.88h0c0-4.65-3.77-8.42-8.42-8.42h-10.05v4.25c0,3.21-2.61,5.81-5.81,5.81h-1.72c-3.21,0-5.81-2.61-5.81-5.81v-4.25h-28.91v4.25c0,3.21-2.61,5.81-5.81,5.81h-1.72c-3.21,0-5.81-2.61-5.81-5.81v-4.25h0s-10.05,0-10.05,0c-4.65,0-8.42,3.77-8.42,8.42h0v50.86c0,4.65,3.77,8.42,8.42,8.42l58.63,1.4,20.85,18.2c.56.39,1.18.57,1.79.57,1.65,0,3.19-1.32,3.17-3.2l-.31-25.39Zm-2.59,25.66c-.07.07-.18.12-.28.12-.04,0-.1,0-.19-.07l-20.85-18.2c-.47-.32-1.03-.5-1.6-.5l-58.63-1.4c-3.09,0-5.61-2.52-5.61-5.61V29.8h86.93v40.94s0,.02,0,.03l.31,25.39c0,.11-.02.18-.09.24Z"/>
    <rect class="cls-3" x="99.44" y="0" width="7.74" height="18.72" rx="3.87" ry="3.87"/>
    <path class="cls-3" d="m84.13,105.44h-25.15l-27.02,17.71c-1.96,1.29-4.57-.12-4.57-2.47v-15.24s-18.97,0-18.97,0c-4.65,0-8.42-3.77-8.42-8.42v-50.21c0-4.65,3.77-8.42,8.42-8.42h75.71c4.65,0,8.42,3.77,8.42,8.42v50.21c0,4.65-3.77,8.42-8.42,8.42Z"/>
    <path class="cls-7" d="m84.13,38.39h-48.22v32.34c0,4.65,3.77,8.42,8.42,8.42h48.22v-32.34c0-4.65-3.77-8.42-8.42-8.42Z"/>
    <path class="cls-2" d="m27.02,54.11l-7.23,8.04c-.47.47-1.04.74-1.71.8-.74,0-1.34-.23-1.81-.7l-4.02-4.02c-.94-1.14-.94-2.28,0-3.42,1.14-.94,2.28-.94,3.42,0l2.21,2.21,5.52-6.13c1.07-1,2.21-1.07,3.42-.2,1,1.07,1.07,2.21.2,3.42Zm0,16.07l-7.23,8.04c-.47.47-1.04.74-1.71.8-.74,0-1.34-.23-1.81-.7l-4.02-4.02c-.94-1.14-.94-2.28,0-3.42,1.14-.94,2.28-.94,3.42,0l2.21,2.21,5.52-6.13c1.07-1,2.21-1.07,3.42-.2,1,1.07,1.07,2.21.2,3.42Zm-5.83,18.48c0,.94-.3,1.71-.9,2.31-.6.6-1.37.9-2.31.9s-1.71-.3-2.31-.9c-.6-.6-.9-1.37-.9-2.31s.3-1.71.9-2.31c.6-.6,1.37-.9,2.31-.9s1.71.3,2.31.9c.6.6.9,1.37.9,2.31Zm6.43,0c.13-1.47.94-2.28,2.41-2.41h48.54c1.47.13,2.28.94,2.41,2.41-.13,1.47-.94,2.28-2.41,2.41H30.04c-1.47-.13-2.28-.94-2.41-2.41Zm5.62-29.73c-1.47-.13-2.28-.94-2.41-2.41.13-1.47.94-2.28,2.41-2.41h45.33c1.47.13,2.28.94,2.41,2.41-.13,1.47-.94,2.28-2.41,2.41h-45.33,45.33-45.33Zm-2.41,13.66c.13-1.47.94-2.28,2.41-2.41h45.33c1.47.13,2.28.94,2.41,2.41-.13,1.47-.94,2.28-2.41,2.41h-45.33c-1.47-.13-2.28-.94-2.41-2.41Z"/>
    <path class="cls-1" d="m164.65,18.35v6.9h-9.37v28.45h-8.61v-28.45h-9.37v-6.9h27.34Z"/>
    <path class="cls-1" d="m166.89,31.99c1.09-2.18,2.58-3.86,4.46-5.04,1.88-1.17,3.98-1.76,6.29-1.76,1.98,0,3.72.4,5.21,1.21,1.49.81,2.64,1.86,3.45,3.17v-3.98h8.61v28.1h-8.61v-3.98c-.84,1.31-2.01,2.37-3.5,3.17-1.49.81-3.23,1.21-5.21,1.21-2.28,0-4.36-.6-6.24-1.79-1.88-1.19-3.37-2.89-4.46-5.09-1.09-2.2-1.64-4.74-1.64-7.63s.55-5.42,1.64-7.6Zm17.62,2.57c-1.19-1.24-2.64-1.86-4.36-1.86s-3.16.61-4.36,1.84c-1.19,1.23-1.79,2.91-1.79,5.06s.6,3.85,1.79,5.11c1.19,1.26,2.64,1.89,4.36,1.89s3.16-.62,4.36-1.86c1.19-1.24,1.79-2.94,1.79-5.09s-.6-3.84-1.79-5.09Z"/>
    <path class="cls-1" d="m204.02,52.84c-1.91-.84-3.42-1.99-4.53-3.45s-1.73-3.1-1.86-4.91h8.51c.1.97.55,1.76,1.36,2.37.81.6,1.8.91,2.97.91,1.07,0,1.91-.21,2.49-.63.59-.42.88-.96.88-1.64,0-.81-.42-1.4-1.26-1.79-.84-.39-2.2-.81-4.08-1.28-2.01-.47-3.69-.96-5.04-1.49-1.34-.52-2.5-1.34-3.47-2.47-.97-1.12-1.46-2.64-1.46-4.56,0-1.61.44-3.08,1.33-4.41.89-1.33,2.2-2.37,3.93-3.15,1.73-.77,3.78-1.16,6.17-1.16,3.52,0,6.3.87,8.33,2.62,2.03,1.75,3.2,4.06,3.5,6.95h-7.96c-.13-.97-.56-1.75-1.28-2.32-.72-.57-1.67-.86-2.84-.86-1.01,0-1.78.19-2.32.58-.54.39-.81.92-.81,1.59,0,.81.43,1.41,1.28,1.81.86.4,2.19.81,4,1.21,2.08.54,3.78,1.07,5.09,1.59,1.31.52,2.46,1.36,3.45,2.52.99,1.16,1.5,2.71,1.54,4.66,0,1.64-.46,3.11-1.39,4.41-.92,1.29-2.25,2.31-3.98,3.05-1.73.74-3.73,1.11-6.02,1.11-2.45,0-4.63-.42-6.55-1.26Z"/>
    <path class="cls-1" d="m242.39,53.7l-8.56-11.78v11.78h-8.61V16.43h8.61v20.6l8.51-11.43h10.63l-11.68,14.1,11.78,14h-10.68Z"/>
    <path class="cls-1" d="m280.66,41.71h-19.49c.13,1.75.7,3.08,1.69,4,.99.92,2.21,1.38,3.65,1.38,2.15,0,3.64-.91,4.48-2.72h9.16c-.47,1.85-1.32,3.51-2.54,4.99-1.23,1.48-2.76,2.64-4.61,3.47-1.85.84-3.91,1.26-6.19,1.26-2.75,0-5.2-.59-7.35-1.76-2.15-1.17-3.83-2.85-5.04-5.04-1.21-2.18-1.81-4.73-1.81-7.65s.6-5.47,1.79-7.65c1.19-2.18,2.86-3.86,5.01-5.04,2.15-1.17,4.62-1.76,7.4-1.76s5.14.57,7.25,1.71c2.12,1.14,3.77,2.77,4.96,4.88,1.19,2.12,1.79,4.58,1.79,7.4,0,.81-.05,1.65-.15,2.52Zm-8.66-4.78c0-1.48-.5-2.65-1.51-3.52-1.01-.87-2.27-1.31-3.78-1.31s-2.66.42-3.65,1.26c-.99.84-1.6,2.03-1.84,3.58h10.78Z"/>
    <path class="cls-1" d="m295.72,26.63c1.51-.89,3.19-1.33,5.04-1.33v9.11h-2.37c-2.15,0-3.76.46-4.83,1.38-1.08.92-1.61,2.54-1.61,4.86v13.04h-8.61v-28.1h8.61v4.68c1.01-1.54,2.27-2.76,3.78-3.65Z"/>
    <path class="cls-1" d="m164.65,61.61v6.9h-9.37v28.45h-8.61v-28.45h-9.37v-6.9h27.34Z"/>
    <path class="cls-1" d="m166.89,75.26c1.09-2.18,2.58-3.86,4.46-5.04,1.88-1.17,3.98-1.76,6.29-1.76,1.98,0,3.72.4,5.21,1.21,1.49.81,2.64,1.86,3.45,3.17v-3.98h8.61v28.1h-8.61v-3.98c-.84,1.31-2.01,2.37-3.5,3.17-1.49.81-3.23,1.21-5.21,1.21-2.28,0-4.36-.6-6.24-1.79-1.88-1.19-3.37-2.89-4.46-5.09-1.09-2.2-1.64-4.74-1.64-7.63s.55-5.42,1.64-7.6Zm17.62,2.57c-1.19-1.24-2.64-1.86-4.36-1.86s-3.16.61-4.36,1.84c-1.19,1.23-1.79,2.91-1.79,5.06s.6,3.85,1.79,5.11c1.19,1.26,2.64,1.89,4.36,1.89s3.16-.62,4.36-1.86c1.19-1.24,1.79-2.94,1.79-5.09s-.6-3.84-1.79-5.09Z"/>
    <path class="cls-1" d="m207.75,59.7v37.26h-8.61v-37.26h8.61Z"/>
    <path class="cls-1" d="m229.15,96.96l-8.56-11.78v11.78h-8.61v-37.26h8.61v20.6l8.51-11.43h10.63l-11.68,14.1,11.78,14h-10.68Z"/>
    <circle class="cls-3" cx="243.96" cy="86.17" r="2.73"/>
    <circle class="cls-3" cx="127.22" cy="114.01" r="2.73"/>
    <circle class="cls-5" cx="95.94" cy="114.01" r="2.73"/>
    <circle class="cls-6" cx="80.99" cy="114.01" r="1.92"/>
    <circle class="cls-6" cx="68.29" cy="114.01" r="1.54"/>
    <circle class="cls-7" cx="111.99" cy="114.01" r="3.64"/>
    <circle class="cls-5" cx="258" cy="86.17" r="5.1"/>
    <path class="cls-6" d="m297.05,76.34l-14.18,15.76c-.92.92-2.04,1.45-3.35,1.58-1.45,0-2.63-.46-3.55-1.38l-7.88-7.88c-1.84-2.23-1.84-4.46,0-6.7,2.23-1.84,4.46-1.84,6.7,0l4.33,4.33,10.83-12.02c2.1-1.97,4.33-2.1,6.7-.39,1.97,2.1,2.1,4.33.39,6.7Z"/>
    <g>
      <path class="cls-4" d="m145.43,110.71c-.27-.52-.65-.91-1.13-1.18-.48-.26-1.04-.4-1.67-.4-.69,0-1.31.16-1.85.47-.54.31-.96.75-1.27,1.32-.31.57-.46,1.23-.46,1.98s.15,1.41.46,1.99c.31.58.73,1.02,1.27,1.33.54.31,1.16.47,1.85.47.93,0,1.69-.26,2.27-.78.58-.52.94-1.23,1.07-2.12h-3.92v-1.37h5.75v1.34c-.11.81-.4,1.56-.86,2.24-.47.68-1.07,1.22-1.82,1.63s-1.57.61-2.49.61c-.98,0-1.88-.23-2.69-.68-.81-.45-1.46-1.09-1.93-1.9-.48-.81-.71-1.73-.71-2.75s.24-1.94.71-2.75c.48-.81,1.12-1.44,1.94-1.9s1.71-.68,2.68-.68c1.11,0,2.1.27,2.97.82s1.49,1.32,1.89,2.32h-2.06Z"/>
      <path class="cls-4" d="m156.41,114.65h-6.32c.05.66.3,1.19.74,1.59.44.4.98.6,1.62.6.92,0,1.57-.39,1.95-1.16h1.85c-.25.76-.7,1.38-1.36,1.87-.66.49-1.47.73-2.44.73-.79,0-1.5-.18-2.13-.53-.63-.36-1.12-.86-1.47-1.5-.36-.65-.53-1.39-.53-2.25s.17-1.6.52-2.25.83-1.14,1.46-1.49,1.34-.53,2.16-.53,1.48.17,2.09.51c.61.34,1.09.82,1.43,1.43.34.62.51,1.32.51,2.13,0,.31-.02.59-.06.84Zm-1.73-1.38c0-.63-.24-1.14-.68-1.52-.44-.38-.99-.57-1.64-.57-.59,0-1.1.19-1.52.56-.42.38-.67.88-.75,1.52h4.58Z"/>
      <path class="cls-4" d="m160.26,110.09c.42-.24.91-.35,1.48-.35v1.77h-.44c-.67,0-1.18.17-1.52.51-.35.34-.52.93-.52,1.77v4.36h-1.71v-8.28h1.71v1.2c.25-.42.58-.75,1-.98Z"/>
      <path class="cls-4" d="m170.25,114.65h-6.32c.05.66.3,1.19.74,1.59.44.4.98.6,1.62.6.92,0,1.57-.39,1.95-1.16h1.85c-.25.76-.7,1.38-1.36,1.87-.66.49-1.47.73-2.44.73-.79,0-1.5-.18-2.13-.53-.63-.36-1.12-.86-1.47-1.5-.36-.65-.53-1.39-.53-2.25s.17-1.6.52-2.25.83-1.14,1.46-1.49,1.34-.53,2.16-.53,1.48.17,2.09.51c.61.34,1.09.82,1.43,1.43.34.62.51,1.32.51,2.13,0,.31-.02.59-.06.84Zm-1.73-1.38c0-.63-.24-1.14-.68-1.52-.44-.38-.99-.57-1.64-.57-.59,0-1.1.19-1.52.56-.42.38-.67.88-.75,1.52h4.58Z"/>
      <path class="cls-4" d="m177.31,110.14c.52.27.92.67,1.21,1.2.29.53.44,1.17.44,1.92v4.88h-1.7v-4.63c0-.74-.19-1.31-.56-1.71-.37-.39-.88-.59-1.52-.59s-1.15.2-1.52.59c-.38.4-.56.96-.56,1.71v4.63h-1.71v-8.28h1.71v.95c.28-.34.64-.61,1.07-.8.44-.19.9-.29,1.39-.29.65,0,1.23.14,1.75.41Z"/>
      <path class="cls-4" d="m180.48,111.76c.35-.65.82-1.14,1.43-1.49s1.31-.53,2.1-.53c1,0,1.83.24,2.49.71.66.48,1.1,1.15,1.33,2.04h-1.85c-.15-.41-.39-.73-.72-.96-.33-.23-.75-.34-1.25-.34-.7,0-1.26.25-1.68.74s-.62,1.19-.62,2.08.21,1.59.62,2.09.97.75,1.68.75c.99,0,1.65-.44,1.97-1.31h1.85c-.24.84-.69,1.51-1.35,2s-1.48.74-2.46.74c-.79,0-1.49-.18-2.1-.53s-1.09-.86-1.43-1.5-.52-1.39-.52-2.25.17-1.6.52-2.25Z"/>
      <path class="cls-4" d="m189.04,108.46c-.21-.21-.32-.47-.32-.78s.1-.57.32-.78c.21-.21.47-.32.78-.32s.56.1.77.32c.21.21.32.47.32.78s-.1.57-.32.78c-.21.21-.47.32-.77.32s-.57-.1-.78-.32Zm1.62,1.41v8.28h-1.71v-8.28h1.71Z"/>
      <path class="cls-4" d="m192.26,111.77c.35-.64.82-1.14,1.41-1.5.6-.35,1.25-.53,1.98-.53.65,0,1.22.13,1.71.38.49.26.87.57,1.16.95v-1.2h1.73v8.28h-1.73v-1.23c-.29.39-.69.72-1.19.98-.5.26-1.07.39-1.71.39-.71,0-1.36-.18-1.95-.55-.59-.37-1.06-.88-1.4-1.53-.35-.66-.52-1.4-.52-2.23s.17-1.57.52-2.21Zm5.9.75c-.24-.42-.54-.74-.92-.96s-.79-.33-1.23-.33-.85.11-1.23.32c-.38.22-.69.53-.92.95s-.35.91-.35,1.48.12,1.07.35,1.5c.24.43.55.76.93.98s.79.34,1.22.34.85-.11,1.23-.33.69-.54.92-.97c.24-.43.35-.92.35-1.49s-.12-1.07-.35-1.49Z"/>
      <path class="cls-4" d="m201.84,111.77c.35-.64.82-1.14,1.41-1.5.6-.35,1.26-.53,1.99-.53.54,0,1.07.12,1.6.35.53.24.94.55,1.25.94v-4h1.73v11.12h-1.73v-1.25c-.28.4-.67.73-1.16.99-.5.26-1.06.39-1.71.39-.72,0-1.38-.18-1.98-.55-.6-.37-1.07-.88-1.41-1.53-.35-.66-.52-1.4-.52-2.23s.17-1.57.52-2.21Zm5.9.75c-.24-.42-.54-.74-.92-.96s-.79-.33-1.23-.33-.85.11-1.23.32c-.38.22-.69.53-.92.95s-.35.91-.35,1.48.12,1.07.35,1.5c.24.43.55.76.93.98s.79.34,1.22.34.85-.11,1.23-.33.69-.54.92-.97c.24-.43.35-.92.35-1.49s-.12-1.07-.35-1.49Z"/>
      <path class="cls-4" d="m212.95,117.75c-.63-.36-1.13-.86-1.49-1.5s-.54-1.39-.54-2.25.19-1.59.56-2.24c.37-.65.88-1.15,1.52-1.5s1.36-.53,2.15-.53,1.51.18,2.15.53,1.15.85,1.52,1.5c.37.65.56,1.4.56,2.24s-.19,1.59-.57,2.24c-.38.65-.9,1.15-1.55,1.51-.66.36-1.38.53-2.17.53s-1.49-.18-2.12-.53Zm3.36-1.27c.39-.21.7-.53.94-.95.24-.42.36-.93.36-1.53s-.12-1.11-.35-1.52c-.23-.42-.54-.73-.92-.94-.38-.21-.79-.32-1.23-.32s-.85.1-1.22.32c-.38.21-.67.52-.89.94s-.33.92-.33,1.52c0,.89.23,1.58.68,2.07.46.49,1.03.73,1.72.73.44,0,.85-.1,1.24-.32Z"/>
      <path class="cls-4" d="m223.18,110.09c.42-.24.91-.35,1.48-.35v1.77h-.44c-.67,0-1.18.17-1.52.51-.35.34-.52.93-.52,1.77v4.36h-1.71v-8.28h1.71v1.2c.25-.42.58-.75,1-.98Z"/>
      <path class="cls-4" d="m228.88,111.77c.35-.64.82-1.14,1.41-1.5.6-.35,1.26-.53,1.99-.53.54,0,1.07.12,1.6.35.53.24.94.55,1.25.94v-4h1.73v11.12h-1.73v-1.25c-.28.4-.67.73-1.16.99-.5.26-1.06.39-1.71.39-.72,0-1.38-.18-1.98-.55-.6-.37-1.07-.88-1.41-1.53-.35-.66-.52-1.4-.52-2.23s.17-1.57.52-2.21Zm5.9.75c-.24-.42-.54-.74-.92-.96s-.79-.33-1.23-.33-.85.11-1.23.32c-.38.22-.69.53-.92.95s-.35.91-.35,1.48.12,1.07.35,1.5c.24.43.55.76.93.98s.79.34,1.22.34.85-.11,1.23-.33.69-.54.92-.97c.24-.43.35-.92.35-1.49s-.12-1.07-.35-1.49Z"/>
      <path class="cls-4" d="m246.05,114.65h-6.32c.05.66.3,1.19.74,1.59.44.4.98.6,1.62.6.92,0,1.57-.39,1.95-1.16h1.85c-.25.76-.7,1.38-1.36,1.87-.66.49-1.47.73-2.44.73-.79,0-1.5-.18-2.13-.53-.63-.36-1.12-.86-1.47-1.5-.36-.65-.53-1.39-.53-2.25s.17-1.6.52-2.25.83-1.14,1.46-1.49,1.34-.53,2.16-.53,1.48.17,2.09.51c.61.34,1.09.82,1.43,1.43.34.62.51,1.32.51,2.13,0,.31-.02.59-.06.84Zm-1.73-1.38c0-.63-.24-1.14-.68-1.52-.44-.38-.99-.57-1.64-.57-.59,0-1.1.19-1.52.56-.42.38-.67.88-.75,1.52h4.58Z"/>
      <path class="cls-4" d="m252.49,111.27v4.58c0,.31.07.53.22.67.15.14.39.2.74.2h1.05v1.43h-1.35c-.77,0-1.36-.18-1.77-.54s-.62-.95-.62-1.76v-4.58h-.98v-1.4h.98v-2.06h1.73v2.06h2.01v1.4h-2.01Z"/>
      <path class="cls-4" d="m255.43,111.77c.35-.64.82-1.14,1.41-1.5.6-.35,1.25-.53,1.98-.53.65,0,1.22.13,1.71.38.49.26.87.57,1.16.95v-1.2h1.73v8.28h-1.73v-1.23c-.29.39-.69.72-1.19.98-.5.26-1.07.39-1.71.39-.71,0-1.36-.18-1.95-.55-.59-.37-1.06-.88-1.4-1.53-.35-.66-.52-1.4-.52-2.23s.17-1.57.52-2.21Zm5.9.75c-.24-.42-.54-.74-.92-.96s-.79-.33-1.23-.33-.85.11-1.23.32c-.38.22-.69.53-.92.95s-.35.91-.35,1.48.12,1.07.35,1.5c.24.43.55.76.93.98s.79.34,1.22.34.85-.11,1.23-.33.69-.54.92-.97c.24-.43.35-.92.35-1.49s-.12-1.07-.35-1.49Z"/>
      <path class="cls-4" d="m267.78,110.09c.42-.24.91-.35,1.48-.35v1.77h-.44c-.67,0-1.18.17-1.52.51-.35.34-.52.93-.52,1.77v4.36h-1.71v-8.28h1.71v1.2c.25-.42.58-.75,1-.98Z"/>
      <path class="cls-4" d="m277.76,114.65h-6.32c.05.66.3,1.19.74,1.59.44.4.98.6,1.62.6.92,0,1.57-.39,1.95-1.16h1.85c-.25.76-.7,1.38-1.36,1.87-.66.49-1.47.73-2.44.73-.79,0-1.5-.18-2.13-.53-.63-.36-1.12-.86-1.47-1.5-.36-.65-.53-1.39-.53-2.25s.17-1.6.52-2.25.83-1.14,1.46-1.49,1.34-.53,2.16-.53,1.48.17,2.09.51c.61.34,1.09.82,1.43,1.43.34.62.51,1.32.51,2.13,0,.31-.02.59-.06.84Zm-1.73-1.38c0-.63-.24-1.14-.68-1.52-.44-.38-.99-.57-1.64-.57-.59,0-1.1.19-1.52.56-.42.38-.67.88-.75,1.52h4.58Z"/>
      <path class="cls-4" d="m282.37,111.27h-1.53v6.88h-1.73v-6.88h-.98v-1.4h.98v-.59c0-.95.25-1.64.76-2.08s1.3-.65,2.38-.65v1.43c-.52,0-.89.1-1.1.29-.21.2-.32.53-.32,1.01v.59h1.53v1.4Z"/>
      <path class="cls-4" d="m283.23,111.77c.35-.64.82-1.14,1.41-1.5.6-.35,1.25-.53,1.98-.53.65,0,1.22.13,1.71.38.49.26.87.57,1.16.95v-1.2h1.73v8.28h-1.73v-1.23c-.29.39-.69.72-1.19.98-.5.26-1.07.39-1.71.39-.71,0-1.36-.18-1.95-.55-.59-.37-1.06-.88-1.4-1.53-.35-.66-.52-1.4-.52-2.23s.17-1.57.52-2.21Zm5.9.75c-.24-.42-.54-.74-.92-.96s-.79-.33-1.23-.33-.85.11-1.23.32c-.38.22-.69.53-.92.95s-.35.91-.35,1.48.12,1.07.35,1.5c.24.43.55.76.93.98s.79.34,1.22.34.85-.11,1.23-.33.69-.54.92-.97c.24-.43.35-.92.35-1.49s-.12-1.07-.35-1.49Z"/>
      <path class="cls-4" d="m294.12,117.93c-.52-.24-.92-.56-1.22-.96-.3-.41-.46-.86-.48-1.36h1.77c.03.35.2.64.5.88.31.24.69.35,1.15.35s.85-.09,1.12-.28c.27-.19.4-.42.4-.71,0-.31-.15-.54-.44-.69-.3-.15-.76-.32-1.4-.5-.62-.17-1.13-.34-1.52-.49-.39-.16-.73-.41-1.01-.74-.29-.33-.43-.77-.43-1.31,0-.44.13-.84.39-1.21.26-.37.63-.65,1.12-.86.49-.21,1.04-.32,1.68-.32.94,0,1.7.24,2.28.71.58.48.88,1.12.92,1.95h-1.71c-.03-.37-.18-.67-.45-.89s-.64-.33-1.1-.33-.8.09-1.04.25c-.24.17-.36.4-.36.68,0,.22.08.41.24.56.16.15.36.27.59.35.23.09.57.19,1.02.32.6.16,1.09.32,1.48.49.39.16.72.41,1,.73.28.32.43.75.44,1.28,0,.47-.13.89-.39,1.26-.26.37-.63.66-1.1.87s-1.03.32-1.67.32-1.23-.12-1.75-.35Z"/>
    </g>
  </g>
</svg>