<svg xmlns="http://www.w3.org/2000/svg" xmlns:xlink="http://www.w3.org/1999/xlink" viewBox="0 0 560 750">
  <defs>
    <style>
      #sombra{ filter: blur(10px) }
      * { transform-box: fill-box; animation-timing-function: ease-in-out; }

      @keyframes porcent { from{transform: rotate(0deg) translate(0px, 20px) } to {transform: rotate(2.5deg) translate(-20px, -10px)} }
      #porcent { animation-name: porcent; animation-duration: 1.8s; animation-iteration-count: infinite; animation-direction: alternate; transform-origin: bottom left; }

      @keyframes sombra { from{transform: scale(.8) translate(0,-5%) } to {transform: scale(.9) translate(0,-10%)} }
      #sombra { animation-name: sombra; animation-duration: 2.5s; animation-iteration-count: infinite; animation-direction: alternate; transform-origin: bottom left; }

      @keyframes celular { from{transform: translate(0,-10px) } to {transform: translate(0, 10px)} }
      #celular { animation-name: celular; animation-duration: 2.5s; animation-iteration-count: infinite; animation-direction: alternate; transform-origin: bottom left; }

      @keyframes input1 { from{transform: translate(0,6px) } to {transform: translate(0, -5px)} }
      #input1 { animation-name: input1; animation-duration: 2.8s; animation-iteration-count: infinite; animation-direction: alternate; transform-origin: bottom left; }

      @keyframes input2 { from{transform: translate(0,-6px) } to {transform: translate(0, 5px)} }
      #input2 { animation-name: input2; animation-duration: 3s; animation-iteration-count: infinite; animation-direction: alternate; transform-origin: bottom left; }

      @keyframes input3 { from{transform: translate(0,6px) } to {transform: translate(0, -5px)} }
      #input3 { animation-name: input3; animation-duration: 2.7s; animation-iteration-count: infinite; animation-direction: alternate; transform-origin: bottom left; }
      
      @keyframes input4 { from{transform: translate(0,-6px) } to {transform: translate(0, 5px)} }
      #input4 { animation-name: input4; animation-duration: 2.5s; animation-iteration-count: infinite; animation-direction: alternate; transform-origin: bottom left; }
      
      @keyframes botao { from{translate(-5px, -10px) scale(1.1) } to {transform: translate(5px, 10px) scale(.9)} }
      #botao { animation-name: botao; animation-duration: 2.5s; animation-iteration-count: infinite; animation-direction: alternate; transform-origin: bottom left; }
      
      @keyframes logo {transform: translate(0px, 2px) from{scale(.8) } to {transform: translate(-15px, 0px) scale(1.3)} }
      #logo { animation-name: logo; animation-duration: 4s; animation-iteration-count: infinite; animation-direction: alternate; transform-origin: bottom left; }
    </style>
    <linearGradient id="Gradiente_sem_nome_1139" data-name="Gradiente sem nome 1139" x1="190.85" y1="146.32" x2="235.15" y2="146.32" gradientUnits="userSpaceOnUse">
      <stop offset="0" stop-color="#e6eef6"/>
      <stop offset=".54" stop-color="#fff"/>
      <stop offset=".87" stop-color="#fff"/>
      <stop offset=".99" stop-color="#e6eef6"/>
    </linearGradient>
  </defs>
  <g id="issometrico">
    <g id="porcent">
      <path style="fill: #ebf0f8;" d="m445.47,195.34c-61.54-35.53-111.6-6.98-111.6,63.63s50.06,156.96,111.6,192.49c61.54,35.53,111.6,6.99,111.6-63.62s-50.06-156.96-111.6-192.49Zm0,248.35c-57.8-33.37-104.83-114.48-104.83-180.81s47.03-93.14,104.83-59.77c57.8,33.37,104.83,114.49,104.83,180.82s-47.03,93.14-104.83,59.77Zm0-230.61c-53.01-30.6-96.14-6.02-96.14,54.81s43.13,135.22,96.14,165.82c53.01,30.61,96.14,6.02,96.14-54.81s-43.13-135.22-96.14-165.82Zm0,212.87c-49.28-28.45-89.37-97.6-89.37-154.15s40.09-79.41,89.37-50.96c49.28,28.45,89.37,97.6,89.37,154.15s-40.09,79.4-89.37,50.95Zm0-195.13c-44.49-25.69-80.68-5.05-80.68,46s36.19,113.47,80.68,139.16c44.49,25.68,80.68,5.05,80.68-46s-36.19-113.48-80.68-139.16Zm0,177.39c-40.75-23.53-73.91-80.72-73.91-127.48s33.16-65.67,73.91-42.14c40.75,23.53,73.91,80.72,73.91,127.49s-33.16,65.67-73.91,42.14Z"/>
      <path style="fill: #3db79f;" d="m449.32,233.16c-1.02-2.25-2.7-4.31-4.61-5.41-3.12-1.8-5.64-.36-5.64,3.22s2.52,7.93,5.64,9.73c1.78,1.03,3.37.99,4.4.11,39.07,24.74,70.27,79.91,70.27,125.28,0,8.69,6.77,10.99,6.77,3.91,0-49.57-34.12-109.85-76.83-136.82Z"/>
      <path style="fill: #f8af1f;" d="m449.31,215.4c-1.02-2.24-2.7-4.29-4.6-5.39-3.12-1.8-5.64-.36-5.64,3.22s2.52,7.93,5.64,9.73c1.79,1.03,3.38.99,4.41.1,47.59,29.68,85.72,96.81,85.72,151.95s-40.09,79.41-89.37,50.95c-1.87-1.08-3.38-.21-3.38,1.93s1.52,4.76,3.38,5.84c53.01,30.61,96.14,6.02,96.14-54.81s-41.06-131.61-92.3-163.51Z"/>
      <path style="fill: #38b1e0;" d="m449.41,197.71c-1.01-2.33-2.74-4.49-4.7-5.62-3.12-1.8-5.64-.36-5.64,3.22s2.52,7.93,5.64,9.73c1.72.99,3.26.99,4.3.2,56.17,34.58,101.29,113.73,101.29,178.7,0,24.45-6.36,44.32-18.38,57.45-1.06,1.16-.67,3.8.87,5.9s3.64,2.87,4.71,1.72c12.8-13.98,19.57-35.13,19.57-61.16,0-69.09-47.94-153.25-107.65-190.12Z"/>
      <path style="fill: #fff;" d="m419.25,305.06c-2.25-3.59-3.5-7.42-3.72-11.47-.06-1.15-.09-2.63-.09-4.47,0-1.97.02-3.52.09-4.66.22-3.93,1.42-6.45,3.59-7.55,2.17-1.1,5.22-.52,9.16,1.76,3.93,2.27,7,5.22,9.2,8.84,2.2,3.62,3.4,7.53,3.63,11.72.12,2.42.17,4.03.17,4.81,0,.72-.06,2.16-.17,4.32-.23,3.8-1.47,6.19-3.72,7.18-2.26.99-5.29.38-9.11-1.83-3.77-2.18-6.78-5.05-9.03-8.65Zm.73,37.48c-.35-.56-.51-1.13-.51-1.72,0-.4.11-.69.34-.89l42.18-39.46c.46-.39.89-.62,1.28-.68.4-.07.97.11,1.71.54l4.53,2.62c.57.33,1.01.77,1.33,1.31.31.54.47,1.11.47,1.69,0,.39-.11.69-.34.88l-42.18,39.46c-.46.39-.89.62-1.28.69-.4.06-.94-.11-1.63-.5l-4.53-2.62c-.57-.33-1.03-.77-1.37-1.33Zm11.93-35.77c.77-.67,1.24-1.8,1.41-3.4.11-2.16.17-3.5.17-4.03,0-.72-.06-2.1-.17-4.13-.12-1.77-.57-3.45-1.37-5.06-.8-1.61-2.02-2.89-3.68-3.84-1.6-.93-2.8-1.04-3.6-.36-.8.68-1.26,1.84-1.37,3.48-.06.95-.09,2.28-.09,3.98s.03,3.03.09,4.18c.11,1.7.56,3.34,1.33,4.93.77,1.59,1.98,2.86,3.64,3.82,1.65.95,2.86,1.09,3.63.43Zm21.56,52.65c-2.26-3.7-3.5-7.6-3.72-11.73-.06-1.14-.08-2.63-.08-4.46s.02-3.42.08-4.57c.23-3.92,1.43-6.43,3.6-7.54,2.16-1.11,5.22-.53,9.15,1.75,4,2.31,7.07,5.27,9.24,8.88,2.16,3.61,3.36,7.5,3.59,11.69.12,2.42.17,3.99.17,4.71s-.06,2.16-.17,4.32c-.23,3.87-1.47,6.34-3.72,7.43-2.26,1.09-5.29.53-9.12-1.68-3.76-2.17-6.77-5.1-9.02-8.79Zm12.75,1.56c.77-.69,1.21-1.84,1.33-3.4.11-2.16.17-3.53.17-4.13,0-.65-.06-2-.17-4.03-.12-1.77-.57-3.45-1.37-5.06-.8-1.61-2.02-2.89-3.68-3.85-1.6-.92-2.79-1.04-3.59-.35-.8.68-1.26,1.84-1.37,3.48-.06.95-.09,2.24-.09,3.88s.03,3.13.09,4.27c.11,1.7.56,3.35,1.33,4.93.77,1.59,1.98,2.86,3.63,3.82,1.71.99,2.95,1.13,3.73.43Z"/>
    </g>
    <path id="sombra" style="fill: #2d4da3; opacity: .54;" d="m370.11,745.94l-255.78-144.99c-12.95-7.34-12.34-26.2,1.05-32.69l25.53-12.38c5.47-2.65,11.88-2.44,17.17.55l255.78,144.99c12.95,7.34,12.34,26.2-1.05,32.69l-25.53,12.38c-5.47,2.65-11.88,2.44-17.17-.55Z"/>
    <g id="celular">
      <path style="fill: #afb6e5;" d="m352.36,657.08l-171.36-98.94c-19.33-11.16-35-41.1-35-66.87V34.91c0-13.11-10.77-16-4.25-20.71.25-.18,26.15-11.79,26.43-11.9,7.02-2.69,14.54-3.89,23.67,1.38l171.36,98.94c19.33,11.16,35,41.1,35,66.87v456.36c0,13.69-4.42,23.46-11.47,27.93-.42.26-29.4,13.66-29.87,13.82-6.25,2.08,3.94-5.63-4.51-10.51Z"/>
      <path style="fill: #fff;" d="m336,664.82l-171.36-98.94c-19.33-11.16-35-41.1-35-66.87V42.64c0-25.77,15.67-37.62,35-26.46l171.36,98.94c19.33,11.16,35,41.1,35,66.87v456.36c0,25.77-15.67,37.62-35,26.46Z"/>
      <path style="fill: #4e77e0;" d="m168.84,35.83c-13.37-7.72-24.2-1.54-24.2,13.8v459.72c0,15.34,10.84,34.03,24.2,41.75l162.95,94.08c13.37,7.72,24.2,1.54,24.2-13.8V171.66c0-15.34-10.84-34.03-24.2-41.75L168.84,35.83Z"/>
      <path style="fill: #e1e6ff;" d="m384.15,331.98h0c-4.92,2.84-8.9-.17-8.9-6.73v-37.14c0-6.56,3.99-14.17,8.9-17.01h0c4.92-2.84,8.9.17,8.9,6.73v37.14c0,6.56-3.99,14.17-8.9,17.01Z"/>
      <path style="fill: #fff;" d="m156.15,522.25l183.59,105.18c.01-138.97.13-462.18.13-463.9L156.15,58.28v463.97Z"/>
      <path style="fill: #c0d7ff;" d="m156.15,128.56l183.7,105.24c.01-59.83.02-80.86.02-72.57L156.15,55.98c0-5.41-.17,261.47-.2,305.25,0,11.38,0,26.53,0,39.28.04-69.62.19-296.91.19-271.95Z"/>
    </g>
    <g id="input1">
      <path style="fill: #e1e6ff;" d="m264.09,465.11l-88.52-51.87c0,13.2,0,23.64-.01,31.89l88.53,50.57v-30.6Z"/>
      <path style="fill: #e1e6ff;" d="m314.35,495.04l-40.25-24.02c0,13.2,0,23.64-.01,31.89l40.26,22.72v-30.6Z"/>
      <path style="fill: #afb6e5;" d="m314.35,521.36l-38.43-21.66c0-7.34,0-16.41.01-27.6l-1.84-1.08c0,13.2,0,23.64-.01,31.89l40.26,22.72v-4.27Z"/>
      <path style="fill: #afb6e5;" d="m264.09,491.43l-86.69-49.51c0-7.34,0-16.41.01-27.6l-1.84-1.08c0,13.2,0,23.64-.01,31.89l88.53,50.57v-4.27Z"/>
      <path style="fill: #2b4ea2;" d="m249.98,441.06l-74.43-42.79c0,3.17,0,5.78-.01,7.11l74.43,42.79c0,1.56,0-2.64,0-7.12Z"/>
      <path style="fill: #38b1e0;" d="m62.17,336.86c.23,0,.47.06.69.18l7.15,4.12c.66.38.89,1.22.51,1.88-.38.66-1.22.88-1.88.51l-7.15-4.12c-.66-.38-.89-1.22-.51-1.88.26-.44.72-.69,1.2-.69Zm14.3,8.23c.23,0,.47.06.69.18l7.15,4.12c.66.38.89,1.22.51,1.88-.38.66-1.23.89-1.88.51l-7.15-4.12c-.66-.38-.89-1.22-.51-1.88.26-.44.72-.69,1.2-.69Zm14.3,8.23c.23,0,.47.06.69.18l7.15,4.12c.66.38.89,1.22.51,1.88-.38.66-1.22.89-1.88.51l-7.15-4.12c-.66-.38-.89-1.22-.51-1.88.26-.44.72-.69,1.19-.69Zm14.3,8.23c.23,0,.47.06.69.18l7.15,4.12c.66.38.89,1.22.51,1.88-.38.66-1.23.89-1.88.51l-7.15-4.12c-.66-.38-.89-1.22-.51-1.88.26-.44.72-.69,1.2-.69Zm14.3,8.23c.23,0,.47.06.69.18l7.15,4.12c.66.38.89,1.22.51,1.88-.38.66-1.22.88-1.88.51l-7.15-4.12c-.66-.38-.89-1.22-.51-1.88.26-.44.72-.69,1.19-.69Zm14.3,8.23c.23,0,.47.06.69.18l7.15,4.12c.66.38.89,1.22.51,1.88-.38.66-1.23.89-1.88.51l-7.15-4.12c-.66-.38-.89-1.22-.51-1.88.26-.44.72-.69,1.2-.69Zm14.3,8.23c.23,0,.47.06.69.18l7.15,4.12c.66.38.89,1.22.51,1.88-.38.66-1.22.89-1.88.51l-7.15-4.12c-.66-.38-.89-1.22-.51-1.88.26-.44.72-.69,1.2-.69Zm14.3,8.23c.23,0,.47.06.69.18l7.15,4.12c.66.38.89,1.22.51,1.88-.38.66-1.23.88-1.88.51l-7.15-4.12c-.66-.38-.89-1.22-.51-1.88.26-.44.72-.69,1.2-.69Z"/>
      <path style="fill: #baddd6;" d="m4.49,291.64l38.95,19.18c1.25.68,2.31,1.64,3.18,2.88.81,1.27,1.25,2.55,1.31,3.83v5.99c-.06,1.22-.5,2.06-1.31,2.54-.88.38-1.94.3-3.18-.26l-38.95-19.18c-1.25-.68-2.31-1.64-3.18-2.88-.81-1.27-1.25-2.55-1.31-3.83v-5.99c.06-1.22.5-2.06,1.31-2.54.87-.38,1.93-.3,3.18.26Zm0,20.97l38.95,19.18c1.25.68,2.31,1.64,3.18,2.88.81,1.27,1.25,2.55,1.31,3.83v5.99c-.06,1.22-.5,2.06-1.31,2.54-.88.38-1.94.3-3.18-.26l-38.95-19.18c-1.25-.68-2.31-1.64-3.18-2.88-.81-1.27-1.25-2.55-1.31-3.83v-5.99c.06-1.22.5-2.06,1.31-2.54.87-.38,1.93-.3,3.18.26Zm38.95,23.67l-25.46-12.54v5.99l25.46,12.54v-5.99,5.99-5.99Zm0-20.97l-13.48-6.64v5.99l13.48,6.64v-5.99,5.99-5.99Z"/>
    </g>
    <g id="input2">
      <path style="fill: #e1e6ff;" d="m315.04,428.55l-139.47-81.8c0,13.2,0,23.64-.01,31.89l139.48,80.51v-30.6Z"/>
      <path style="fill: #afb6e5;" d="m315.04,454.87l-137.64-79.45c0-7.34,0-16.41.01-27.6l-1.84-1.08c0,13.2,0,23.64-.01,31.89l139.48,80.51v-4.28Z"/>
      <path style="fill: #2b4ea2;" d="m175.54,340.61l43.07,24.44c0,1.56,0-2.64,0-7.12l-43.07-24.44c0,3.17,0,5.78-.01,7.11Z"/>
      <path style="fill: #38b1e0;" d="m62.17,271.31c.23,0,.47.06.69.18l7.15,4.12c.66.38.89,1.22.51,1.88-.38.66-1.22.88-1.88.51l-7.15-4.12c-.66-.38-.89-1.22-.51-1.88.26-.44.72-.69,1.2-.69Zm14.3,8.23c.23,0,.47.06.69.18l7.15,4.12c.66.38.89,1.22.51,1.88-.38.66-1.23.89-1.88.51l-7.15-4.12c-.66-.38-.89-1.22-.51-1.88.26-.44.72-.69,1.2-.69Zm14.3,8.23c.23,0,.47.06.69.18l7.15,4.12c.66.38.89,1.22.51,1.88-.38.66-1.22.89-1.88.51l-7.15-4.12c-.66-.38-.89-1.22-.51-1.88.26-.44.72-.69,1.19-.69Zm14.3,8.23c.23,0,.47.06.69.18l7.15,4.12c.66.38.89,1.22.51,1.88-.38.66-1.23.89-1.88.51l-7.15-4.12c-.66-.38-.89-1.22-.51-1.88.26-.44.72-.69,1.2-.69Zm14.3,8.23c.23,0,.47.06.69.18l7.15,4.12c.66.38.89,1.22.51,1.88-.38.66-1.22.88-1.88.51l-7.15-4.12c-.66-.38-.89-1.22-.51-1.88.26-.44.72-.69,1.19-.69Zm14.3,8.23c.23,0,.47.06.69.18l7.15,4.12c.66.38.89,1.22.51,1.88-.38.66-1.23.89-1.88.51l-7.15-4.12c-.66-.38-.89-1.22-.51-1.88.26-.44.72-.69,1.2-.69Zm14.3,8.23c.23,0,.47.06.69.18l7.15,4.12c.66.38.89,1.22.51,1.88-.38.66-1.22.89-1.88.51l-7.15-4.12c-.66-.38-.89-1.22-.51-1.88.26-.44.72-.69,1.2-.69Zm14.3,8.23c.23,0,.47.06.69.18l7.15,4.12c.66.38.89,1.22.51,1.88-.38.66-1.23.88-1.88.51l-7.15-4.12c-.66-.38-.89-1.22-.51-1.88.26-.44.72-.69,1.2-.69Z"/>
      <path style="fill: #baddd6;" d="m11.98,233.37v3.75-3.75c.06-1.47.56-2.47,1.5-3.01,1-.44,2.25-.33,3.74.35l13.48,6.64c1.5.8,2.75,1.91,3.75,3.34.94,1.46,1.44,2.95,1.5,4.48v3.75l5.99,2.95c1.68.89,3.09,2.18,4.21,3.85,1.12,1.68,1.72,3.37,1.78,5.09v3.09c-.5-.31-1-.59-1.5-.83-1-.49-2-.89-3-1.2v-3.28c-.06-.97-.56-1.71-1.5-2.24l-8.24-4.06-27.71-13.65c-.94-.4-1.44-.15-1.5.76v8.99l13.48,6.64,15.73,7.75c-2.06,1.55-3.28,3.94-3.65,7.19l-.09-.04-8.99-4.43c-.88-.43-1.59-1.07-2.15-1.9-.56-.84-.84-1.69-.84-2.57v-1.5l-13.48-6.64v10.49c.06.97.56,1.71,1.5,2.23l25.09,12.36c.62,1.93,1.5,3.86,2.62,5.78l-27.71-13.65c-1.68-.89-3.09-2.18-4.21-3.85-1.12-1.68-1.72-3.37-1.78-5.09v-23.97c.06-1.66.66-2.77,1.78-3.34,1.12-.57,2.53-.47,4.21.3l5.99,2.95v-3.75Zm4.49,5.96v-3.75,3.75l14.98,7.38v-3.75c-.06-.47-.31-.84-.75-1.12l-13.48-6.64c-.44-.15-.69-.03-.75.38v3.75Zm18.25,27.71c1.19-1.48,2.84-2.31,4.96-2.52,2.12-.14,4.37.37,6.74,1.54,2.37,1.17,4.62,2.87,6.74,5.1,2.12,2.29,3.78,4.76,4.96,7.41,1.18,2.64,1.78,5.18,1.78,7.62s-.59,4.39-1.78,5.87c-1.19,1.47-2.84,2.31-4.96,2.52-2.12.14-4.37-.37-6.74-1.54-2.37-1.17-4.62-2.87-6.74-5.1-2.12-2.29-3.78-4.76-4.96-7.41s-1.78-5.18-1.78-7.62.59-4.39,1.78-5.87Zm10.21,5.77v5.99c.06.97.56,1.71,1.5,2.24l4.49,2.21c.94.4,1.44.15,1.5-.76-.06-.97-.56-1.71-1.5-2.24l-3-1.47v-4.49c-.06-.97-.56-1.71-1.5-2.24-.94-.4-1.44-.15-1.5.76Z"/>
    </g>
    <g id="input3">
      <path style="fill: #e1e6ff;" d="m315.04,364.12l-139.47-81.8c0,13.2,0,23.64-.01,31.89l139.48,80.51v-30.6Z"/>
      <path style="fill: #afb6e5;" d="m315.04,390.44l-137.64-79.45c0-7.34,0-16.41.01-27.6l-1.84-1.08c0,13.2,0,23.64-.01,31.89l139.48,80.51v-4.28Z"/>
      <path style="fill: #2b4ea2;" d="m275.66,326.61l-100.11-57.89c0,3.17,0,5.78-.01,7.11l100.11,57.89c0,1.56,0-2.64,0-7.12Z"/>
      <polygon style="fill: #afb6e5;" points="303.81 380.07 309.96 374.45 297.66 367.34 303.81 380.07"/>
      <polygon style="fill: #afb6e5;" points="303.81 358.36 297.66 363.98 309.96 371.09 303.81 358.36"/>
      <path style="fill: #38b1e0;" d="m62.17,206.54c.23,0,.47.06.69.18l7.15,4.12c.66.38.89,1.22.51,1.88-.38.66-1.22.88-1.88.51l-7.15-4.12c-.66-.38-.89-1.22-.51-1.88.26-.44.72-.69,1.2-.69Zm14.3,8.23c.23,0,.47.06.69.18l7.15,4.12c.66.38.89,1.22.51,1.88-.38.66-1.23.89-1.88.51l-7.15-4.12c-.66-.38-.89-1.22-.51-1.88.26-.44.72-.69,1.2-.69Zm14.3,8.23c.23,0,.47.06.69.18l7.15,4.12c.66.38.89,1.22.51,1.88-.38.66-1.22.89-1.88.51l-7.15-4.12c-.66-.38-.89-1.22-.51-1.88.26-.44.72-.69,1.19-.69Zm14.3,8.23c.23,0,.47.06.69.18l7.15,4.12c.66.38.89,1.22.51,1.88-.38.66-1.23.89-1.88.51l-7.15-4.12c-.66-.38-.89-1.22-.51-1.88.26-.44.72-.69,1.2-.69Zm14.3,8.23c.23,0,.47.06.69.18l7.15,4.12c.66.38.89,1.22.51,1.88-.38.66-1.22.88-1.88.51l-7.15-4.12c-.66-.38-.89-1.22-.51-1.88.26-.44.72-.69,1.19-.69Zm14.3,8.23c.23,0,.47.06.69.18l7.15,4.12c.66.38.89,1.22.51,1.88-.38.66-1.23.89-1.88.51l-7.15-4.12c-.66-.38-.89-1.22-.51-1.88.26-.44.72-.69,1.2-.69Zm14.3,8.23c.23,0,.47.06.69.18l7.15,4.12c.66.38.89,1.22.51,1.88-.38.66-1.22.89-1.88.51l-7.15-4.12c-.66-.38-.89-1.22-.51-1.88.26-.44.72-.69,1.2-.69Zm14.3,8.23c.23,0,.47.06.69.18l7.15,4.12c.66.38.89,1.22.51,1.88-.38.66-1.23.88-1.88.51l-7.15-4.12c-.66-.38-.89-1.22-.51-1.88.26-.44.72-.69,1.2-.69Z"/>
      <path style="fill: #baddd6;" d="m23.22,171.08v3.74l13.48,6.64v-3.74c.12-1.31.87-1.69,2.25-1.14,1.37.8,2.12,1.92,2.25,3.35v3.74l3.75,1.85c1.68.89,3.09,2.18,4.21,3.85s1.72,3.37,1.78,5.09v29.96c-.06,1.65-.66,2.77-1.78,3.34s-2.53.47-4.21-.29l-29.96-14.75c-1.68-.89-3.09-2.18-4.21-3.85-1.12-1.68-1.72-3.37-1.78-5.09v-29.96c.06-1.66.66-2.77,1.78-3.34,1.12-.57,2.53-.47,4.21.3l3.75,1.84v-3.74c.12-1.31.87-1.69,2.25-1.14,1.37.8,2.12,1.92,2.25,3.35Zm-9.74,10.93l32.95,16.23-32.95-16.23v23.97c.06.97.56,1.71,1.5,2.24l29.96,14.75c.94.4,1.44.14,1.5-.76v-23.97l-32.95-16.23Zm15.82,28.11l10.49-5.32-10.49,5.32c-1.06.35-2.12-.17-3.18-1.57l-5.99-8.94c-.88-1.49-.88-2.55,0-3.18,1.06-.35,2.12.17,3.18,1.57l4.4,6.57,8.89-4.51c1.06-.35,2.12.17,3.18,1.57.87,1.49.87,2.55,0,3.18l-10.49,5.32Z"/>
    </g>
    <g id="input4">
      <path style="fill: #e1e6ff;" d="m315.04,295.9l-139.47-81.8c0,13.2,0,23.64-.01,31.89l139.48,80.51v-30.6Z"/>
      <path style="fill: #afb6e5;" d="m315.04,322.22l-137.64-79.45c0-7.34,0-16.41.01-27.6l-1.84-1.08c0,13.2,0,23.64-.01,31.89l139.48,80.51v-4.28Z"/>
      <path style="fill: #2b4ea2;" d="m249.98,243.3l-74.43-42.79c0,3.17,0,5.78-.01,7.11l74.43,42.79c0,1.56,0-2.64,0-7.12Z"/>
      <path style="fill: #38b1e0;" d="m62.17,138.32c.23,0,.47.06.69.18l7.15,4.12c.66.38.89,1.22.51,1.88-.38.66-1.22.88-1.88.51l-7.15-4.12c-.66-.38-.89-1.22-.51-1.88.26-.44.72-.69,1.2-.69Zm14.3,8.23c.23,0,.47.06.69.18l7.15,4.12c.66.38.89,1.22.51,1.88-.38.66-1.23.89-1.88.51l-7.15-4.12c-.66-.38-.89-1.22-.51-1.88.26-.44.72-.69,1.2-.69Zm14.3,8.23c.23,0,.47.06.69.18l7.15,4.12c.66.38.89,1.22.51,1.88-.38.66-1.22.89-1.88.51l-7.15-4.12c-.66-.38-.89-1.22-.51-1.88.26-.44.72-.69,1.19-.69Zm14.3,8.23c.23,0,.47.06.69.18l7.15,4.12c.66.38.89,1.22.51,1.88-.38.66-1.23.89-1.88.51l-7.15-4.12c-.66-.38-.89-1.22-.51-1.88.26-.44.72-.69,1.2-.69Zm14.3,8.23c.23,0,.47.06.69.18l7.15,4.12c.66.38.89,1.22.51,1.88-.38.66-1.22.88-1.88.51l-7.15-4.12c-.66-.38-.89-1.22-.51-1.88.26-.44.72-.69,1.19-.69Zm14.3,8.23c.23,0,.47.06.69.18l7.15,4.12c.66.38.89,1.22.51,1.88-.38.66-1.23.89-1.88.51l-7.15-4.12c-.66-.38-.89-1.22-.51-1.88.26-.44.72-.69,1.2-.69Zm14.3,8.23c.23,0,.47.06.69.18l7.15,4.12c.66.38.89,1.22.51,1.88-.38.66-1.22.89-1.88.51l-7.15-4.12c-.66-.38-.89-1.22-.51-1.88.26-.44.72-.69,1.2-.69Zm14.3,8.23c.23,0,.47.06.69.18l7.15,4.12c.66.38.89,1.22.51,1.88-.38.66-1.23.88-1.88.51l-7.15-4.12c-.66-.38-.89-1.22-.51-1.88.26-.44.72-.69,1.2-.69Z"/>
      <path style="fill: #baddd6;" d="m17.97,100.04l15.54,7.65c1.62.8,3.03,2.08,4.21,3.85l8.42,12.57c1.19,1.77,1.78,3.5,1.78,5.18v27.43c-.06,1.65-.66,2.77-1.78,3.34-1.12.57-2.53.47-4.21-.3l-23.97-11.8c-1.68-.89-3.09-2.18-4.21-3.85-1.12-1.68-1.72-3.37-1.78-5.09v-35.95c.06-1.65.66-2.77,1.78-3.34,1.12-.57,2.53-.47,4.21.3Zm0,43.44l23.97,11.8c.94.4,1.43.14,1.5-.76v-26.96l-7.49-3.69c-.88-.43-1.59-1.06-2.15-1.9-.56-.84-.84-1.69-.84-2.57v-7.49l-14.98-7.38c-.94-.4-1.44-.15-1.5.76v35.95c.06.97.56,1.71,1.5,2.24Zm21.07-7.98l-10.02,4.99c-1.06.35-2.12-.17-3.18-1.57l-4.96-7.4c-.88-1.49-.88-2.55,0-3.18,1.06-.35,2.12.17,3.18,1.57l3.37,5.03,8.43-4.18c1.06-.35,2.12.17,3.18,1.57.87,1.49.87,2.55,0,3.18Z"/>
    </g>
    <g id="logo">
      <path style="fill: url(#Gradiente_sem_nome_1139);" d="m235.04,167.06l.08-26.44c0-2.42-1.79-5.46-4.01-6.81l-4.8-2.91v2.21c-.01,1.67-1.26,2.27-2.79,1.34l-.82-.5c-1.53-.93-2.77-3.04-2.77-4.7v-2.21s-13.8-8.36-13.8-8.36v2.21c-.01,1.67-1.26,2.27-2.79,1.34l-.82-.5c-1.53-.93-2.77-3.04-2.77-4.7v-2.21s-4.79-2.91-4.79-2.91c-2.22-1.34-4.02-.47-4.03,1.94l-.08,26.44c0,2.42,1.79,5.46,4.01,6.81l24.42,14.78,13.51,18.39c1.01,1.37,2.38,1.4,2.37.06l-.11-13.29Z"/>
      <path style="fill: #2b4ea2;" d="m203.35,120.79l-.82-.5c-.79-.48-1.43-1.57-1.43-2.43l.02-6.6c0-.86.65-1.17,1.44-.69l.82.5c.79.48,1.43,1.57,1.43,2.43l-.02,6.6c0,.86-.65,1.17-1.44.69Z"/>
      <path style="fill: #2b4ea2;" d="m223.53,133l-.82-.5c-.79-.48-1.43-1.57-1.43-2.43l.02-6.6c0-.86.65-1.17,1.44-.69l.82.5c.79.48,1.43,1.57,1.43,2.43l-.02,6.6c0,.86-.65,1.17-1.44.69Z"/>
      <path style="fill: #2b4ea2;" d="m235.04,167.06l.06-21.28.02-5.16h0c0-2.42-1.79-5.46-4.01-6.81l-4.8-2.91h0s0,1.46,0,1.46v.75c0,1.67-1.26,2.27-2.79,1.34l-.82-.5c-1.53-.93-2.77-3.04-2.77-4.7v-2.21s-13.8-8.36-13.8-8.36v2.21c-.01,1.67-1.26,2.27-2.79,1.34l-.82-.5c-1.53-.93-2.77-3.04-2.77-4.7v-.75s0-1.46,0-1.46h0s-4.8-2.91-4.8-2.91c-2.22-1.34-4.02-.47-4.03,1.94h0s-.02,5.16-.02,5.16l-.06,21.28c0,2.42,1.79,5.46,4.01,6.81l24.42,14.78,13.51,18.39c.27.37.56.64.85.81.79.48,1.53.23,1.52-.75l-.11-13.29Zm-1.27,12.59s-.09.01-.13-.02c-.02-.01-.05-.03-.09-.09l-13.51-18.39c-.22-.3-.49-.56-.76-.72l-24.42-14.78c-1.48-.89-2.68-2.93-2.67-4.54l.06-21.28,41.51,25.13-.06,21.28s0,.01,0,.02l.11,13.29c0,.06-.01.09-.04.1Z"/>
      <path style="fill: #2b4ea2;" d="m202.53,120.29l.82.5c.79.48,1.44.17,1.44-.69v-2.21s-3.69-2.24-3.69-2.24v2.21c0,.86.63,1.95,1.43,2.43Z"/>
      <path style="fill: #4e77e0;" d="m213.82,172.29l-12.01-7.27-12.93,1.4c-.94.1-2.18-1.38-2.18-2.6l.02-7.92-9.06-5.48c-2.22-1.34-4.01-4.39-4.01-6.81l.08-26.1c0-2.42,1.81-3.29,4.03-1.94l36.15,21.88c2.22,1.34,4.01,4.39,4.01,6.81l-.08,26.1c0,2.42-1.81,3.29-4.03,1.94Z"/>
      <path style="fill: #38b1e0;" d="m213.93,137.44l-23.03-13.94-.05,16.81c0,2.42,1.79,5.46,4.01,6.81l23.03,13.94.05-16.81c0-2.42-1.79-5.46-4.01-6.81Z"/>
      <path style="fill: #fff;" d="m186.64,129.1l-3.47,2.09c-.22.11-.5.08-.82-.08-.35-.21-.64-.51-.86-.89l-1.91-3.25c-.45-.86-.44-1.45,0-1.78.54-.16,1.09.17,1.63.99l1.05,1.79,2.65-1.59c.51-.21,1.06.08,1.63.88.48.85.51,1.46.09,1.83Zm-.02,8.35l-3.47,2.09c-.22.11-.5.08-.82-.08-.35-.21-.64-.51-.86-.89l-1.91-3.25c-.45-.86-.44-1.45,0-1.78.54-.16,1.09.17,1.63.99l1.05,1.79,2.65-1.59c.51-.21,1.06.08,1.63.88.48.85.51,1.46.09,1.83Zm-2.81,7.92c0,.49-.15.8-.44.94-.29.14-.66.07-1.1-.2s-.81-.65-1.1-1.14c-.29-.49-.43-.97-.43-1.46s.15-.8.44-.94c.29-.14.66-.07,1.1.2s.81.65,1.1,1.14c.29.49.43.98.43,1.46Zm3.07,1.86c.07-.73.45-.91,1.15-.56l23.18,14.03c.7.5,1.09,1.15,1.15,1.95-.07.73-.45.91-1.15.56l-23.18-14.03c-.7-.5-1.09-1.15-1.15-1.95Zm2.73-13.83c-.7-.5-1.09-1.15-1.15-1.95.07-.73.45-.91,1.15-.56l21.64,13.1c.7.5,1.09,1.15,1.15,1.95-.07.73-.45.91-1.15.56l-21.64-13.1,21.64,13.1-21.64-13.1Zm-1.17,6.4c.07-.73.45-.91,1.15-.56l21.64,13.1c.7.5,1.09,1.15,1.15,1.95-.07.73-.45.91-1.15.56l-21.64-13.1c-.7-.5-1.09-1.15-1.15-1.95Z"/>
      <path class="cls-5" d="m252.41,149.25v3.59s-4.48-2.71-4.48-2.71l-.04,14.79-4.11-2.49.04-14.79-4.47-2.71v-3.59s13.07,7.9,13.07,7.9Z"/>
      <path class="cls-5" d="m253.46,156.99c.52-.82,1.24-1.26,2.14-1.33.9-.07,1.9.23,3.01.9.95.57,1.77,1.28,2.49,2.13.71.85,1.26,1.73,1.64,2.65v-2.07s4.12,2.49,4.12,2.49l-.04,14.61-4.11-2.49v-2.07c-.4.44-.96.65-1.67.64-.71-.01-1.55-.31-2.49-.88-1.09-.66-2.08-1.57-2.98-2.73-.9-1.16-1.6-2.47-2.12-3.93-.52-1.46-.77-2.94-.77-4.44s.27-2.66.79-3.48Zm8.41,6.43c-.57-.99-1.26-1.73-2.08-2.23s-1.51-.6-2.08-.3c-.57.29-.86,1-.86,2.11s.28,2.17.85,3.17c.57,1,1.26,1.75,2.08,2.24s1.51.59,2.08.29c.57-.3.86-1.01.86-2.13s-.28-2.17-.85-3.16Z"/>
      <path class="cls-5" d="m271.16,178.56c-.91-.99-1.63-2.02-2.16-3.1s-.82-2.11-.88-3.09l4.06,2.46c.05.54.26,1.08.65,1.62.38.55.86.99,1.42,1.33.51.31.91.44,1.19.39.28-.05.42-.25.42-.6,0-.42-.2-.85-.6-1.29-.4-.44-1.05-1.06-1.95-1.85-.96-.83-1.76-1.57-2.4-2.23-.64-.66-1.19-1.42-1.66-2.29-.46-.87-.69-1.8-.69-2.79,0-.84.22-1.47.64-1.9.43-.43,1.05-.6,1.88-.5.83.1,1.81.49,2.95,1.18,1.68,1.02,3.01,2.28,3.98,3.77.97,1.49,1.52,3.04,1.66,4.62l-3.8-2.3c-.06-.54-.27-1.07-.61-1.58-.34-.51-.8-.93-1.36-1.27-.48-.29-.85-.41-1.11-.37-.26.05-.39.24-.39.59,0,.42.2.86.61,1.31.41.46,1.04,1.05,1.91,1.79.99.88,1.8,1.65,2.43,2.29.62.65,1.17,1.42,1.64,2.31.47.89.71,1.84.73,2.87,0,.86-.23,1.49-.67,1.89-.44.41-1.08.55-1.9.43-.83-.12-1.79-.5-2.88-1.16-1.17-.71-2.21-1.56-3.12-2.55Z"/>
      <path class="cls-5" d="m289.48,190.1l-4.07-8.6-.02,6.13-4.11-2.49.06-19.37,4.11,2.49-.03,10.71,4.08-3.48,5.07,3.07-5.6,3.95,5.61,10.68-5.1-3.09Z"/>
      <path class="cls-5" d="m307.78,194.93l-9.31-5.63c.06.95.33,1.8.8,2.57.47.77,1.05,1.36,1.74,1.78,1.03.62,1.74.58,2.14-.12l4.38,2.65c-.23.82-.63,1.44-1.22,1.86-.59.41-1.32.57-2.21.47-.88-.1-1.87-.48-2.96-1.14-1.31-.8-2.48-1.81-3.51-3.04-1.02-1.23-1.82-2.59-2.4-4.07-.57-1.48-.86-2.98-.85-4.5s.29-2.67.87-3.46c.57-.79,1.37-1.18,2.4-1.17,1.03.01,2.21.42,3.54,1.22s2.45,1.78,3.46,2.99c1.01,1.2,1.8,2.53,2.36,3.97.57,1.44.85,2.9.84,4.36,0,.42-.03.84-.08,1.27Zm-4.13-4.99c0-.77-.24-1.52-.72-2.27-.48-.74-1.08-1.34-1.8-1.77s-1.27-.55-1.75-.4c-.47.15-.77.59-.88,1.33l5.15,3.11Z"/>
      <path class="cls-5" d="m314.99,191.44c.72-.03,1.52.23,2.41.76v4.74s-1.14-.68-1.14-.68c-1.03-.62-1.8-.85-2.31-.68-.51.17-.77.86-.78,2.06l-.02,6.78-4.11-2.49.04-14.61,4.11,2.49v2.43c.48-.51,1.08-.78,1.8-.81Z"/>
      <path class="cls-5" d="m252.34,171.74v3.59s-4.48-2.71-4.48-2.71l-.04,14.79-4.11-2.49.04-14.79-4.47-2.71v-3.59s13.07,7.9,13.07,7.9Z"/>
      <path class="cls-5" d="m253.39,179.48c.52-.82,1.24-1.26,2.14-1.33.9-.07,1.9.23,3.01.9.95.57,1.77,1.28,2.49,2.13.71.85,1.26,1.73,1.64,2.65v-2.07s4.12,2.49,4.12,2.49l-.04,14.61-4.11-2.49v-2.07c-.4.44-.96.65-1.67.64-.71-.01-1.55-.31-2.49-.88-1.09-.66-2.08-1.57-2.98-2.73-.9-1.16-1.6-2.47-2.12-3.93-.52-1.46-.77-2.94-.77-4.44s.27-2.66.79-3.48Zm8.41,6.43c-.57-.99-1.26-1.73-2.08-2.23s-1.51-.6-2.08-.3c-.57.29-.86,1-.86,2.11s.28,2.17.85,3.17c.57,1,1.26,1.75,2.08,2.24s1.51.59,2.08.29c.57-.3.86-1.01.86-2.13s-.28-2.17-.85-3.16Z"/>
      <path class="cls-5" d="m272.93,183.21l-.06,19.37-4.11-2.49.06-19.37,4.11,2.49Z"/>
      <path class="cls-5" d="m283.09,208.76l-4.07-8.6-.02,6.13-4.11-2.49.06-19.37,4.11,2.49-.03,10.71,4.08-3.48,5.07,3.07-5.6,3.95,5.61,10.68-5.1-3.09Z"/>
      <path style="fill: #60ead3;" d="m317.02,225.45l-3.35,2.02c-.22.1-.48.08-.79-.07-.34-.21-.62-.49-.83-.86l-1.85-3.14c-.43-.83-.43-1.41,0-1.72.53-.15,1.05.17,1.58.95l1.02,1.73,2.56-1.54c.5-.21,1.02.08,1.58.85.46.82.49,1.41.09,1.77Z"/>
    </g>
    <g id="botao">
      <path style="fill: #4aa997;" d="m300.97,619.22l-141.28-80.68c-1.96-1.12-3.17-3.21-3.15-5.47l.24-40.62c.03-4.79,5.2-7.77,9.36-5.4l141.28,80.68c1.96,1.12,3.17,3.21,3.15,5.47l-.24,40.62c-.03,4.79-5.2,7.77-9.36,5.4Z"/>
      <path style="fill: #3db79f;" d="m297.07,622.17l-141.29-80.69c-1.96-1.12-3.17-3.21-3.15-5.47l.24-40.62c.03-4.79,5.2-7.77,9.36-5.4l141.29,80.69c1.96,1.12,3.17,3.21,3.15,5.47l-.24,40.62c-.03,4.79-5.2,7.77-9.36,5.4Z"/>
      <path style="fill: #45c4ab;" d="m295.15,586.87l-137.96-80.69c-1.92-1.12-3.09-3.21-3.08-5.47l.12-2.94c.03-4.79,5.08-7.77,9.14-5.4l137.96,80.69c1.92,1.12,3.09,3.21,3.08,5.47l-.12,2.94c-.03,4.79-5.08,7.77-9.14,5.4Z"/>
      <g>
        <path style="fill: #fff;" d="m181.27,534.38c-.49.71-1.25,1.11-2.26,1.18s-2.28-.27-3.78-1.04l-2.78-1.42-.03,7.21-4.48-2.29.08-20.1,7.26,3.71c1.47.75,2.71,1.66,3.72,2.73,1.01,1.07,1.77,2.22,2.27,3.46s.75,2.48.75,3.74c0,1.16-.25,2.1-.75,2.82Zm-4.45-3.61c.42-.22.63-.74.63-1.54,0-.8-.2-1.53-.62-2.18-.42-.65-1.06-1.2-1.91-1.64l-2.44-1.25-.02,5.04,2.44,1.25c.86.44,1.49.54,1.92.32Z"/>
        <path style="fill: #fff;" d="m192.63,550.64l-3.8-9.54-1.07-.55-.03,7.59-4.48-2.29.08-20.1,7.52,3.85c1.45.74,2.69,1.65,3.71,2.73,1.02,1.08,1.78,2.23,2.29,3.45s.75,2.43.75,3.61c0,1.34-.35,2.35-1.05,3.05-.69.7-1.71.92-3.06.67l4.22,10.13-5.06-2.59Zm-4.86-13.56l2.78,1.42c.82.42,1.44.52,1.85.29s.62-.74.62-1.55c0-.76-.2-1.47-.61-2.12-.41-.65-1.03-1.18-1.85-1.6l-2.78-1.42-.02,4.98Z"/>
        <path style="fill: #fff;" d="m203.24,554.95c-1.44-1.61-2.58-3.43-3.42-5.43-.84-2.01-1.26-4-1.25-5.96,0-1.97.44-3.52,1.29-4.65.85-1.13,2-1.77,3.45-1.91,1.44-.14,3.03.23,4.76,1.12s3.31,2.13,4.75,3.75c1.44,1.62,2.57,3.42,3.39,5.41.82,1.99,1.23,3.97,1.22,5.93s-.43,3.52-1.28,4.67c-.84,1.15-1.99,1.79-3.42,1.94-1.44.15-3.02-.22-4.75-1.11-1.73-.88-3.31-2.13-4.75-3.75Zm8.3-.52c.88-.62,1.33-1.8,1.34-3.56,0-1.78-.43-3.42-1.31-4.93-.88-1.51-2.05-2.64-3.52-3.39-1.49-.76-2.67-.84-3.56-.24-.89.6-1.33,1.79-1.34,3.59,0,1.77.43,3.42,1.31,4.93.88,1.51,2.06,2.64,3.54,3.4,1.47.75,2.65.82,3.53.2Z"/>
        <path style="fill: #fff;" d="m235.31,572.46l-4.48-2.29-7.45-16.23-.05,12.4-4.48-2.29.08-20.1,4.48,2.29,7.45,16.29.05-12.45,4.48,2.29-.08,20.1Z"/>
        <path style="fill: #fff;" d="m250.82,560.25v3.92s-4.89-2.49-4.89-2.49l-.06,16.18-4.48-2.29.06-16.18-4.88-2.49v-3.92s14.25,7.28,14.25,7.28Z"/>
        <path style="fill: #fff;" d="m255.9,581.87c-1.44-1.61-2.58-3.43-3.42-5.43-.84-2.01-1.26-3.99-1.25-5.96,0-1.97.44-3.52,1.29-4.65.85-1.13,2-1.77,3.45-1.91,1.44-.14,3.03.23,4.76,1.12s3.31,2.13,4.75,3.75,2.57,3.42,3.39,5.41c.82,1.99,1.23,3.97,1.22,5.93,0,1.97-.43,3.52-1.28,4.67-.84,1.15-1.99,1.79-3.42,1.94-1.44.15-3.02-.22-4.75-1.11-1.73-.88-3.31-2.13-4.75-3.75Zm8.3-.52c.88-.62,1.33-1.8,1.34-3.56,0-1.78-.43-3.42-1.31-4.93-.88-1.51-2.05-2.64-3.52-3.39-1.49-.76-2.67-.84-3.56-.24-.89.6-1.33,1.79-1.34,3.59,0,1.77.43,3.42,1.31,4.93.88,1.51,2.06,2.64,3.54,3.4,1.47.75,2.65.82,3.53.2Z"/>
        <path style="fill: #fff;" d="m273.12,591.26c-.5-.76-.74-1.51-.74-2.26,0-.76.25-1.28.75-1.54.5-.26,1.14-.19,1.93.21.77.39,1.4.97,1.9,1.75.5.77.74,1.54.74,2.3,0,.74-.25,1.24-.75,1.49-.5.25-1.14.18-1.9-.21-.79-.4-1.43-.98-1.92-1.74Zm4.36-18.09l-.58,13.45-3.8-1.94-.47-13.98,4.85,2.48Z"/>
        <path style="fill: #fff;" d="m282.35,595.97c-.5-.76-.74-1.51-.74-2.26,0-.76.25-1.28.75-1.54.5-.26,1.14-.19,1.93.21.77.39,1.4.97,1.9,1.75.5.77.74,1.54.74,2.3,0,.74-.25,1.24-.75,1.49-.5.25-1.14.18-1.9-.21-.79-.4-1.43-.98-1.92-1.74Zm4.36-18.09l-.58,13.45-3.8-1.94-.47-13.98,4.85,2.48Z"/>
        <path style="fill: #fff;" d="m291.58,600.69c-.5-.76-.74-1.51-.74-2.26,0-.76.25-1.28.75-1.54.5-.26,1.14-.19,1.93.21.77.39,1.4.98,1.9,1.75.5.77.74,1.54.74,2.3,0,.74-.25,1.24-.75,1.49-.5.25-1.13.18-1.9-.21-.79-.4-1.43-.98-1.92-1.74Zm4.36-18.09l-.58,13.45-3.8-1.94-.47-13.98,4.85,2.48Z"/>
      </g>
    </g>
  </g>
</svg>