<svg xmlns="http://www.w3.org/2000/svg" viewBox="0 0 300.75 123.63">
  <defs>
    <style>
      .cls-1, .cls-2, .cls-3, .cls-4, .cls-5, .cls-6, .cls-7 {
        stroke-width: 0px;
      }

      .cls-2 {
        fill: #fff;
      }

      .cls-3 {
        fill: #4e77e0;
      }

      .cls-4 {
        fill: #52c2cf;
      }

      .cls-5 {
        fill: #6cf;
      }

      .cls-6 {
        fill: #3db79f;
      }

      .cls-7 {
        fill: #38b1e0;
      }
    </style>
  </defs>
  <g id="logo">
    <path class="cls-2" d="m125.59,96.52c.1,0,.2-.05.28-.12.06-.07.09-.14.09-.24l-.31-25.39s0-.02,0-.03V29.8H38.71v40.94c0,3.09,2.52,5.61,5.61,5.61l58.63,1.4c.57,0,1.13.17,1.6.5l20.85,18.2c.09.06.15.07.19.07Z"/>
    <rect class="cls-3" x="57.18" y="0" width="7.74" height="18.72" rx="3.87" ry="3.87"/>
    <path class="cls-3" d="m128.45,70.73V19.88h0c0-4.65-3.77-8.42-8.42-8.42h-10.05v4.25c0,3.21-2.61,5.81-5.81,5.81h-1.72c-3.21,0-5.81-2.61-5.81-5.81v-4.25h-28.91v4.25c0,3.21-2.61,5.81-5.81,5.81h-1.72c-3.21,0-5.81-2.61-5.81-5.81v-4.25h0s-10.05,0-10.05,0c-4.65,0-8.42,3.77-8.42,8.42h0v50.86c0,4.65,3.77,8.42,8.42,8.42l58.63,1.4,20.85,18.2c.56.39,1.18.57,1.79.57,1.65,0,3.19-1.32,3.17-3.2l-.31-25.39Zm-2.59,25.66c-.07.07-.18.12-.28.12-.04,0-.1,0-.19-.07l-20.85-18.2c-.47-.32-1.03-.5-1.6-.5l-58.63-1.4c-3.09,0-5.61-2.52-5.61-5.61V29.8h86.93v40.94s0,.02,0,.03l.31,25.39c0,.11-.02.18-.09.24Z"/>
    <rect class="cls-3" x="99.44" y="0" width="7.74" height="18.72" rx="3.87" ry="3.87"/>
    <path class="cls-3" d="m84.13,105.44h-25.15l-27.02,17.71c-1.96,1.29-4.57-.12-4.57-2.47v-15.24s-18.97,0-18.97,0c-4.65,0-8.42-3.77-8.42-8.42v-50.21c0-4.65,3.77-8.42,8.42-8.42h75.71c4.65,0,8.42,3.77,8.42,8.42v50.21c0,4.65-3.77,8.42-8.42,8.42Z"/>
    <path class="cls-7" d="m84.13,38.39h-48.22v32.34c0,4.65,3.77,8.42,8.42,8.42h48.22v-32.34c0-4.65-3.77-8.42-8.42-8.42Z"/>
    <path class="cls-2" d="m27.02,54.11l-7.23,8.04c-.47.47-1.04.74-1.71.8-.74,0-1.34-.23-1.81-.7l-4.02-4.02c-.94-1.14-.94-2.28,0-3.42,1.14-.94,2.28-.94,3.42,0l2.21,2.21,5.52-6.13c1.07-1,2.21-1.07,3.42-.2,1,1.07,1.07,2.21.2,3.42Zm0,16.07l-7.23,8.04c-.47.47-1.04.74-1.71.8-.74,0-1.34-.23-1.81-.7l-4.02-4.02c-.94-1.14-.94-2.28,0-3.42,1.14-.94,2.28-.94,3.42,0l2.21,2.21,5.52-6.13c1.07-1,2.21-1.07,3.42-.2,1,1.07,1.07,2.21.2,3.42Zm-5.83,18.48c0,.94-.3,1.71-.9,2.31-.6.6-1.37.9-2.31.9s-1.71-.3-2.31-.9c-.6-.6-.9-1.37-.9-2.31s.3-1.71.9-2.31c.6-.6,1.37-.9,2.31-.9s1.71.3,2.31.9c.6.6.9,1.37.9,2.31Zm6.43,0c.13-1.47.94-2.28,2.41-2.41h48.54c1.47.13,2.28.94,2.41,2.41-.13,1.47-.94,2.28-2.41,2.41H30.04c-1.47-.13-2.28-.94-2.41-2.41Zm5.62-29.73c-1.47-.13-2.28-.94-2.41-2.41.13-1.47.94-2.28,2.41-2.41h45.33c1.47.13,2.28.94,2.41,2.41-.13,1.47-.94,2.28-2.41,2.41h-45.33,45.33-45.33Zm-2.41,13.66c.13-1.47.94-2.28,2.41-2.41h45.33c1.47.13,2.28.94,2.41,2.41-.13,1.47-.94,2.28-2.41,2.41h-45.33c-1.47-.13-2.28-.94-2.41-2.41Z"/>
    <path class="cls-1" d="m164.65,16.35v6.9h-9.37v28.45h-8.61v-28.45h-9.37v-6.9h27.34Z"/>
    <path class="cls-1" d="m166.89,29.99c1.09-2.18,2.58-3.86,4.46-5.04,1.88-1.17,3.98-1.76,6.29-1.76,1.98,0,3.72.4,5.21,1.21,1.49.81,2.64,1.86,3.45,3.17v-3.98h8.61v28.1h-8.61v-3.98c-.84,1.31-2.01,2.37-3.5,3.17-1.49.81-3.23,1.21-5.21,1.21-2.28,0-4.36-.6-6.24-1.79-1.88-1.19-3.37-2.89-4.46-5.09-1.09-2.2-1.64-4.74-1.64-7.63s.55-5.42,1.64-7.6Zm17.62,2.57c-1.19-1.24-2.64-1.86-4.36-1.86s-3.16.61-4.36,1.84c-1.19,1.23-1.79,2.91-1.79,5.06s.6,3.85,1.79,5.11c1.19,1.26,2.64,1.89,4.36,1.89s3.16-.62,4.36-1.86c1.19-1.24,1.79-2.94,1.79-5.09s-.6-3.84-1.79-5.09Z"/>
    <path class="cls-1" d="m204.02,50.84c-1.91-.84-3.42-1.99-4.53-3.45s-1.73-3.1-1.86-4.91h8.51c.1.97.55,1.76,1.36,2.37.81.6,1.8.91,2.97.91,1.07,0,1.91-.21,2.49-.63.59-.42.88-.96.88-1.64,0-.81-.42-1.4-1.26-1.79-.84-.39-2.2-.81-4.08-1.28-2.01-.47-3.69-.96-5.04-1.49-1.34-.52-2.5-1.34-3.47-2.47-.97-1.12-1.46-2.64-1.46-4.56,0-1.61.44-3.08,1.33-4.41.89-1.33,2.2-2.37,3.93-3.15,1.73-.77,3.78-1.16,6.17-1.16,3.52,0,6.3.87,8.33,2.62,2.03,1.75,3.2,4.06,3.5,6.95h-7.96c-.13-.97-.56-1.75-1.28-2.32-.72-.57-1.67-.86-2.84-.86-1.01,0-1.78.19-2.32.58-.54.39-.81.92-.81,1.59,0,.81.43,1.41,1.28,1.81.86.4,2.19.81,4,1.21,2.08.54,3.78,1.07,5.09,1.59,1.31.52,2.46,1.36,3.45,2.52.99,1.16,1.5,2.71,1.54,4.66,0,1.64-.46,3.11-1.39,4.41-.92,1.29-2.25,2.31-3.98,3.05-1.73.74-3.73,1.11-6.02,1.11-2.45,0-4.63-.42-6.55-1.26Z"/>
    <path class="cls-1" d="m242.39,51.7l-8.56-11.78v11.78h-8.61V14.43h8.61v20.6l8.51-11.43h10.63l-11.68,14.1,11.78,14h-10.68Z"/>
    <path class="cls-1" d="m280.66,39.71h-19.49c.13,1.75.7,3.08,1.69,4,.99.92,2.21,1.38,3.65,1.38,2.15,0,3.64-.91,4.48-2.72h9.16c-.47,1.85-1.32,3.51-2.54,4.99-1.23,1.48-2.76,2.64-4.61,3.47-1.85.84-3.91,1.26-6.19,1.26-2.75,0-5.2-.59-7.35-1.76-2.15-1.17-3.83-2.85-5.04-5.04-1.21-2.18-1.81-4.73-1.81-7.65s.6-5.47,1.79-7.65c1.19-2.18,2.86-3.86,5.01-5.04,2.15-1.17,4.62-1.76,7.4-1.76s5.14.57,7.25,1.71c2.12,1.14,3.77,2.77,4.96,4.88,1.19,2.12,1.79,4.58,1.79,7.4,0,.81-.05,1.65-.15,2.52Zm-8.66-4.78c0-1.48-.5-2.65-1.51-3.52-1.01-.87-2.27-1.31-3.78-1.31s-2.66.42-3.65,1.26c-.99.84-1.6,2.03-1.84,3.58h10.78Z"/>
    <path class="cls-1" d="m295.72,24.63c1.51-.89,3.19-1.33,5.04-1.33v9.11h-2.37c-2.15,0-3.76.46-4.83,1.38-1.08.92-1.61,2.54-1.61,4.86v13.04h-8.61v-28.1h8.61v4.68c1.01-1.54,2.27-2.76,3.78-3.65Z"/>
    <path class="cls-1" d="m164.65,59.61v6.9h-9.37v28.45h-8.61v-28.45h-9.37v-6.9h27.34Z"/>
    <path class="cls-1" d="m166.89,73.26c1.09-2.18,2.58-3.86,4.46-5.04,1.88-1.17,3.98-1.76,6.29-1.76,1.98,0,3.72.4,5.21,1.21,1.49.81,2.64,1.86,3.45,3.17v-3.98h8.61v28.1h-8.61v-3.98c-.84,1.31-2.01,2.37-3.5,3.17-1.49.81-3.23,1.21-5.21,1.21-2.28,0-4.36-.6-6.24-1.79-1.88-1.19-3.37-2.89-4.46-5.09-1.09-2.2-1.64-4.74-1.64-7.63s.55-5.42,1.64-7.6Zm17.62,2.57c-1.19-1.24-2.64-1.86-4.36-1.86s-3.16.61-4.36,1.84c-1.19,1.23-1.79,2.91-1.79,5.06s.6,3.85,1.79,5.11c1.19,1.26,2.64,1.89,4.36,1.89s3.16-.62,4.36-1.86c1.19-1.24,1.79-2.94,1.79-5.09s-.6-3.84-1.79-5.09Z"/>
    <path class="cls-1" d="m207.75,57.7v37.26h-8.61v-37.26h8.61Z"/>
    <path class="cls-1" d="m229.15,94.96l-8.56-11.78v11.78h-8.61v-37.26h8.61v20.6l8.51-11.43h10.63l-11.68,14.1,11.78,14h-10.68Z"/>
    <circle class="cls-3" cx="246.17" cy="91.16" r="3.8"/>
    <circle class="cls-5" cx="260.73" cy="91.16" r="3.8"/>
    <circle class="cls-4" cx="274.72" cy="91.16" r="3.8"/>
    <path class="cls-6" d="m300.17,87.58l-6.99,7.77c-.45.45-1,.71-1.65.78-.71,0-1.3-.23-1.75-.68l-3.88-3.88c-.91-1.1-.91-2.2,0-3.3,1.1-.91,2.2-.91,3.3,0l2.14,2.14,5.34-5.92c1.03-.97,2.14-1.03,3.3-.19.97,1.04,1.03,2.14.19,3.3Z"/>
  </g>
</svg>